<?xml version="1.0" encoding="UTF-8"?>
<svg id="Layer_1" data-name="Layer 1" xmlns="http://www.w3.org/2000/svg" viewBox="0 0 799.49 800">
  <circle cx="514.42" cy="266.28" r="46.84"/>
  <circle cx="578.09" cy="352.68" r="46.84"/>
  <circle cx="572.97" cy="468.81" r="46.84"/>
  <circle cx="511.82" cy="560.97" r="46.84"/>
  <circle cx="402.2" cy="694.01" r="34.4"/>
  <circle cx="499.54" cy="682.3" r="34.4"/>
  <circle cx="582.98" cy="634.72" r="34.4"/>
  <circle cx="637.87" cy="570.32" r="34.4"/>
  <circle cx="684.71" cy="494.93" r="34.4"/>
  <circle cx="699.35" cy="412.96" r="34.4"/>
  <circle cx="699.35" cy="411.5" r="34.4"/>
  <circle cx="687.64" cy="314.16" r="34.4"/>
  <circle cx="640.07" cy="230.72" r="34.4"/>
  <circle cx="575.66" cy="175.83" r="34.4"/>
  <circle cx="500.28" cy="128.99" r="34.4"/>
  <circle cx="418.3" cy="114.35" r="34.4"/>
  <circle cx="320.63" cy="126.06" r="34.4"/>
  <circle cx="237.2" cy="173.63" r="34.4"/>
  <circle cx="182.3" cy="238.04" r="34.4"/>
  <circle cx="135.46" cy="313.42" r="34.4"/>
  <circle cx="120.83" cy="396.86" r="34.4"/>
  <circle cx="132.54" cy="494.2" r="34.4"/>
  <circle cx="180.11" cy="577.64" r="34.4"/>
  <circle cx="244.51" cy="632.53" r="34.4"/>
  <circle cx="319.9" cy="679.37" r="34.4"/>
  <circle cx="401.71" cy="217.71" r="46.84"/>
  <circle cx="401.71" cy="595.9" r="46.84"/>
  <circle cx="289.33" cy="547.53" r="46.84"/>
  <circle cx="225.65" cy="461.13" r="46.84"/>
  <circle cx="230.77" cy="345" r="46.84"/>
  <circle cx="289.33" cy="251.32" r="46.84"/>
  <circle cx="402.2" cy="779.87" r="20.13"/>
  <circle cx="519.67" cy="755.48" r="20.13"/>
  <circle cx="630.19" cy="702.42" r="20.13"/>
  <circle cx="707.77" cy="620.45" r="20.13"/>
  <circle cx="763.75" cy="513.33" r="20.13"/>
  <circle cx="779.36" cy="397.8" r="20.13"/>
  <circle cx="779.36" cy="397.29" r="20.13"/>
  <circle cx="754.97" cy="279.82" r="20.13"/>
  <circle cx="701.91" cy="169.3" r="20.13"/>
  <circle cx="619.94" cy="91.72" r="20.13"/>
  <circle cx="512.82" cy="35.74" r="20.13"/>
  <circle cx="397.29" cy="20.13" r="20.13"/>
  <circle cx="279.82" cy="44.52" r="20.13"/>
  <circle cx="169.3" cy="97.58" r="20.13"/>
  <circle cx="91.72" cy="179.55" r="20.13"/>
  <circle cx="35.74" cy="286.67" r="20.13"/>
  <circle cx="20.13" cy="402.71" r="20.13"/>
  <circle cx="44.52" cy="520.18" r="20.13"/>
  <circle cx="97.58" cy="630.7" r="20.13"/>
  <circle cx="179.55" cy="708.28" r="20.13"/>
  <circle cx="286.67" cy="764.26" r="20.13"/>
</svg>