<?xml version="1.0" encoding="UTF-8"?>
<svg id="Layer_1" xmlns="http://www.w3.org/2000/svg" version="1.1" viewBox="0 0 800 800">
  <!-- Generator: Adobe Illustrator 29.7.1, SVG Export Plug-In . SVG Version: 2.1.1 Build 8)  -->
  <defs>
    <style>
      .st0 {
        fill: #2f9dca;
      }
    </style>
  </defs>
  <g>
    <path class="st0" d="M238.57,400.76H24.88l-8.93-72.72L218.8,52.47h114.18v269.19h58.05v79.1h-58.05v89.3h-94.41v-89.3ZM238.57,321.66v-169.68l-123.75,169.68h123.75Z"/>
    <path class="st0" d="M660.22,136.67h-216.88V51.83h325.96v70.81l-176.7,367.43h-106.53l174.14-353.39Z"/>
  </g>
  <g>
    <path class="st0" d="M26.87,601.99h31.3l70.49,94.55v-94.55h31.52v146.3h-31.52l-70.49-94.55v94.55h-31.3v-146.3Z"/>
    <path class="st0" d="M184.66,675.03c0-41.1,35.78-75.6,77.73-75.6s77.73,34.5,77.73,75.6-35.35,75.81-77.73,75.81-77.73-34.71-77.73-75.81ZM307.96,675.03c0-25.34-20.87-47.06-45.57-47.06s-45.36,21.72-45.36,47.06,20.87,47.28,45.36,47.28,45.57-21.72,45.57-47.28Z"/>
    <path class="st0" d="M451.28,748.29l-33.43-47.49h-23.21v47.49h-31.3v-146.3h65.8c31.73,0,55.15,20.44,55.15,49.41,0,21.72-13.2,38.76-33.22,45.78l35.99,51.11h-35.78ZM394.63,672.05h31.09c15.54,0,26.19-8.09,26.19-20.66s-10.65-20.66-26.19-20.66h-31.09v41.31Z"/>
    <path class="st0" d="M545.61,630.31h-45.57v-28.32h122.66v28.32h-45.57v117.98h-31.52v-117.98Z"/>
    <path class="st0" d="M773.04,601.99v146.3h-31.3v-60.48h-66.65v60.48h-31.3v-146.3h31.3v57.5h66.65v-57.5h31.3Z"/>
  </g>
</svg>