<?xml version="1.0" encoding="UTF-8"?>
<svg id="Layer_1" xmlns="http://www.w3.org/2000/svg" version="1.1" viewBox="0 0 800 800">
  <!-- Generator: Adobe Illustrator 29.7.1, SVG Export Plug-In . SVG Version: 2.1.1 Build 8)  -->
  <defs>
    <style>
      .st0 {
        fill: #1da8d1;
      }

      .st1 {
        fill: #12228e;
      }
    </style>
  </defs>
  <path class="st1" d="M61.6,297.5L-1.2,361.78s295.22,284.21,398.8,273.59c103.58-10.61,258.36-147.71,258.36-147.71l-71.64-62.8s-116.5,107.02-186.72,110.56c-70.22,3.54-336-237.92-336-237.92Z"/>
  <path class="st1" d="M736,424.27l62.8-64.27S503.58,75.79,400,86.41c-103.58,10.61-258.36,147.71-258.36,147.71l71.64,62.8s116.5-107.02,186.72-110.56c70.22-3.54,336,237.92,336,237.92Z"/>
  <path class="st0" d="M276.87,362.36c85.83,94.18,166.78,102.35,241.46,0-83.36-97.65-163.98-102.05-241.46,0Z"/>
</svg>